# xmcd CD database file
#
# Track frame offsets:
#	150
#	19934
#	36388
#	54262
#	74341
#	86075
#	105135
#	122379
#	131002
#	145960
#	159274
#	176180
#	195573
#	216695
#	233295
#	252180
#	264612
#	277799
#	288779
#	307024
#
# Disc length: 4308 seconds
#
# Revision: 1
# Processed by: cddbd v1.5.1PL0 Copyright (c) Steve Scherf et al.
# Submitted via: CDex 1.51
#
DISCID=1a10d214
DTITLE=Enya - Mystic Hits
DYEAR=2003
DGENRE=New Age
TTITLE0=Exile
TTITLE1=Only Time
TTITLE2=Caribbean Blue
TTITLE3=Orinoco Flow
TTITLE4=A Day Without Rain
TTITLE5=Paint The Sky With Stars
TTITLE6=Evening Falls
TTITLE7=Ebudae
TTITLE8=Only If
TTITLE9=The Celts
TTITLE10=Anywhere Is
TTITLE11=The Memory Of Trees
TTITLE12=China Roses
TTITLE13=Shepherd Moons
TTITLE14=Storm In Africa
TTITLE15=Deora Ar Mo Chrol
TTITLE16=Book Of Days
TTITLE17=Watermark
TTITLE18=I Want Tomorrow
TTITLE19=On My Way Home
EXTD=YEAR: 2003
EXTT0=
EXTT1=
EXTT2=
EXTT3=
EXTT4=
EXTT5=
EXTT6=
EXTT7=
EXTT8=
EXTT9=
EXTT10=
EXTT11=
EXTT12=
EXTT13=
EXTT14=
EXTT15=
EXTT16=
EXTT17=
EXTT18=
EXTT19=
PLAYORDER=
